<svg xmlns="http://www.w3.org/2000/svg" xmlns:xlink="http://www.w3.org/1999/xlink" width="500" zoomAndPan="magnify" viewBox="0 0 375 149.999998" height="200" preserveAspectRatio="xMidYMid meet" version="1.0"><defs><g/></defs><g fill="#ffffff" fill-opacity="1"><g transform="translate(113.542131, 69.294117)"><g><path d="M 2.75 0 L 2.75 -30.84375 L 13.5625 -30.84375 C 17.300781 -30.84375 20.140625 -30.125 22.078125 -28.6875 C 24.015625 -27.257812 24.984375 -25.160156 24.984375 -22.390625 C 24.984375 -20.878906 24.59375 -19.546875 23.8125 -18.390625 C 23.039062 -17.242188 21.960938 -16.40625 20.578125 -15.875 C 22.160156 -15.476562 23.40625 -14.675781 24.3125 -13.46875 C 25.21875 -12.269531 25.671875 -10.800781 25.671875 -9.0625 C 25.671875 -6.101562 24.722656 -3.859375 22.828125 -2.328125 C 20.941406 -0.804688 18.25 -0.03125 14.75 0 Z M 9.109375 -13.4375 L 9.109375 -5.109375 L 14.5625 -5.109375 C 16.050781 -5.109375 17.21875 -5.460938 18.0625 -6.171875 C 18.90625 -6.890625 19.328125 -7.875 19.328125 -9.125 C 19.328125 -11.957031 17.863281 -13.394531 14.9375 -13.4375 Z M 9.109375 -17.921875 L 13.8125 -17.921875 C 17.019531 -17.984375 18.625 -19.265625 18.625 -21.765625 C 18.625 -23.160156 18.21875 -24.164062 17.40625 -24.78125 C 16.59375 -25.394531 15.3125 -25.703125 13.5625 -25.703125 L 9.109375 -25.703125 Z M 9.109375 -17.921875 "/></g></g></g><g fill="#ffffff" fill-opacity="1"><g transform="translate(141.235813, 69.294117)"><g><path d="M 1.390625 -11.671875 C 1.390625 -13.941406 1.828125 -15.96875 2.703125 -17.75 C 3.585938 -19.53125 4.851562 -20.90625 6.5 -21.875 C 8.144531 -22.851562 10.050781 -23.34375 12.21875 -23.34375 C 15.3125 -23.34375 17.835938 -22.394531 19.796875 -20.5 C 21.753906 -18.613281 22.847656 -16.046875 23.078125 -12.796875 L 23.109375 -11.234375 C 23.109375 -7.710938 22.125 -4.890625 20.15625 -2.765625 C 18.195312 -0.640625 15.566406 0.421875 12.265625 0.421875 C 8.960938 0.421875 6.320312 -0.632812 4.34375 -2.75 C 2.375 -4.875 1.390625 -7.757812 1.390625 -11.40625 Z M 7.515625 -11.234375 C 7.515625 -9.054688 7.925781 -7.390625 8.75 -6.234375 C 9.570312 -5.085938 10.742188 -4.515625 12.265625 -4.515625 C 13.742188 -4.515625 14.898438 -5.082031 15.734375 -6.21875 C 16.566406 -7.351562 16.984375 -9.171875 16.984375 -11.671875 C 16.984375 -13.804688 16.566406 -15.457031 15.734375 -16.625 C 14.898438 -17.800781 13.726562 -18.390625 12.21875 -18.390625 C 10.726562 -18.390625 9.570312 -17.804688 8.75 -16.640625 C 7.925781 -15.472656 7.515625 -13.671875 7.515625 -11.234375 Z M 7.515625 -11.234375 "/></g></g></g><g fill="#ffffff" fill-opacity="1"><g transform="translate(165.772367, 69.294117)"><g><path d="M 15.234375 -17.1875 C 14.398438 -17.300781 13.664062 -17.359375 13.03125 -17.359375 C 10.71875 -17.359375 9.195312 -16.570312 8.46875 -15 L 8.46875 0 L 2.359375 0 L 2.359375 -22.921875 L 8.140625 -22.921875 L 8.3125 -20.1875 C 9.539062 -22.289062 11.238281 -23.34375 13.40625 -23.34375 C 14.082031 -23.34375 14.71875 -23.253906 15.3125 -23.078125 Z M 15.234375 -17.1875 "/></g></g></g><g fill="#ffffff" fill-opacity="1"><g transform="translate(181.600358, 69.294117)"><g><path d="M 8.8125 0 L 2.671875 0 L 2.671875 -22.921875 L 8.8125 -22.921875 Z M 2.3125 -28.859375 C 2.3125 -29.773438 2.617188 -30.53125 3.234375 -31.125 C 3.847656 -31.71875 4.679688 -32.015625 5.734375 -32.015625 C 6.785156 -32.015625 7.617188 -31.71875 8.234375 -31.125 C 8.859375 -30.53125 9.171875 -29.773438 9.171875 -28.859375 C 9.171875 -27.921875 8.851562 -27.15625 8.21875 -26.5625 C 7.59375 -25.96875 6.765625 -25.671875 5.734375 -25.671875 C 4.703125 -25.671875 3.875 -25.96875 3.25 -26.5625 C 2.625 -27.15625 2.3125 -27.921875 2.3125 -28.859375 Z M 2.3125 -28.859375 "/></g></g></g><g fill="#ffffff" fill-opacity="1"><g transform="translate(193.105847, 69.294117)"><g><path d="M 14.765625 -6.328125 C 14.765625 -7.078125 14.394531 -7.664062 13.65625 -8.09375 C 12.914062 -8.53125 11.722656 -8.921875 10.078125 -9.265625 C 4.628906 -10.398438 1.90625 -12.710938 1.90625 -16.203125 C 1.90625 -18.242188 2.75 -19.941406 4.4375 -21.296875 C 6.125 -22.660156 8.332031 -23.34375 11.0625 -23.34375 C 13.96875 -23.34375 16.289062 -22.65625 18.03125 -21.28125 C 19.78125 -19.914062 20.65625 -18.140625 20.65625 -15.953125 L 14.53125 -15.953125 C 14.53125 -16.828125 14.25 -17.550781 13.6875 -18.125 C 13.125 -18.695312 12.238281 -18.984375 11.03125 -18.984375 C 10 -18.984375 9.203125 -18.75 8.640625 -18.28125 C 8.078125 -17.8125 7.796875 -17.21875 7.796875 -16.5 C 7.796875 -15.820312 8.113281 -15.273438 8.75 -14.859375 C 9.394531 -14.441406 10.476562 -14.082031 12 -13.78125 C 13.53125 -13.476562 14.820312 -13.132812 15.875 -12.75 C 19.101562 -11.5625 20.71875 -9.507812 20.71875 -6.59375 C 20.71875 -4.5 19.820312 -2.804688 18.03125 -1.515625 C 16.238281 -0.222656 13.921875 0.421875 11.078125 0.421875 C 9.160156 0.421875 7.457031 0.0820312 5.96875 -0.59375 C 4.476562 -1.28125 3.304688 -2.222656 2.453125 -3.421875 C 1.609375 -4.617188 1.1875 -5.90625 1.1875 -7.28125 L 6.984375 -7.28125 C 7.046875 -6.195312 7.453125 -5.363281 8.203125 -4.78125 C 8.953125 -4.207031 9.953125 -3.921875 11.203125 -3.921875 C 12.378906 -3.921875 13.265625 -4.140625 13.859375 -4.578125 C 14.460938 -5.023438 14.765625 -5.609375 14.765625 -6.328125 Z M 14.765625 -6.328125 "/></g></g></g><g fill="#ff914d" fill-opacity="1"><g transform="translate(215.413219, 69.294117)"><g><path d="M 11.0625 -30.84375 L 18.984375 -8.46875 L 26.859375 -30.84375 L 35.21875 -30.84375 L 35.21875 0 L 28.828125 0 L 28.828125 -8.4375 L 29.46875 -22.984375 L 21.140625 0 L 16.78125 0 L 8.46875 -22.96875 L 9.109375 -8.4375 L 9.109375 0 L 2.75 0 L 2.75 -30.84375 Z M 11.0625 -30.84375 "/></g></g></g><g fill="#ff914d" fill-opacity="1"><g transform="translate(253.425809, 69.294117)"><g><path d="M 1.390625 -11.671875 C 1.390625 -13.941406 1.828125 -15.96875 2.703125 -17.75 C 3.585938 -19.53125 4.851562 -20.90625 6.5 -21.875 C 8.144531 -22.851562 10.050781 -23.34375 12.21875 -23.34375 C 15.3125 -23.34375 17.835938 -22.394531 19.796875 -20.5 C 21.753906 -18.613281 22.847656 -16.046875 23.078125 -12.796875 L 23.109375 -11.234375 C 23.109375 -7.710938 22.125 -4.890625 20.15625 -2.765625 C 18.195312 -0.640625 15.566406 0.421875 12.265625 0.421875 C 8.960938 0.421875 6.320312 -0.632812 4.34375 -2.75 C 2.375 -4.875 1.390625 -7.757812 1.390625 -11.40625 Z M 7.515625 -11.234375 C 7.515625 -9.054688 7.925781 -7.390625 8.75 -6.234375 C 9.570312 -5.085938 10.742188 -4.515625 12.265625 -4.515625 C 13.742188 -4.515625 14.898438 -5.082031 15.734375 -6.21875 C 16.566406 -7.351562 16.984375 -9.171875 16.984375 -11.671875 C 16.984375 -13.804688 16.566406 -15.457031 15.734375 -16.625 C 14.898438 -17.800781 13.726562 -18.390625 12.21875 -18.390625 C 10.726562 -18.390625 9.570312 -17.804688 8.75 -16.640625 C 7.925781 -15.472656 7.515625 -13.671875 7.515625 -11.234375 Z M 7.515625 -11.234375 "/></g></g></g><g fill="#ff914d" fill-opacity="1"><g transform="translate(277.962363, 69.294117)"><g><path d="M 15.234375 -17.1875 C 14.398438 -17.300781 13.664062 -17.359375 13.03125 -17.359375 C 10.71875 -17.359375 9.195312 -16.570312 8.46875 -15 L 8.46875 0 L 2.359375 0 L 2.359375 -22.921875 L 8.140625 -22.921875 L 8.3125 -20.1875 C 9.539062 -22.289062 11.238281 -23.34375 13.40625 -23.34375 C 14.082031 -23.34375 14.71875 -23.253906 15.3125 -23.078125 Z M 15.234375 -17.1875 "/></g></g></g><g fill="#ff914d" fill-opacity="1"><g transform="translate(293.790354, 69.294117)"><g><path d="M 12.90625 0.421875 C 9.539062 0.421875 6.800781 -0.609375 4.6875 -2.671875 C 2.582031 -4.734375 1.53125 -7.476562 1.53125 -10.90625 L 1.53125 -11.5 C 1.53125 -13.800781 1.972656 -15.859375 2.859375 -17.671875 C 3.742188 -19.492188 5.003906 -20.894531 6.640625 -21.875 C 8.273438 -22.851562 10.132812 -23.34375 12.21875 -23.34375 C 15.351562 -23.34375 17.820312 -22.351562 19.625 -20.375 C 21.425781 -18.40625 22.328125 -15.601562 22.328125 -11.96875 L 22.328125 -9.46875 L 7.734375 -9.46875 C 7.929688 -7.96875 8.523438 -6.765625 9.515625 -5.859375 C 10.515625 -4.960938 11.78125 -4.515625 13.3125 -4.515625 C 15.664062 -4.515625 17.503906 -5.367188 18.828125 -7.078125 L 21.84375 -3.703125 C 20.925781 -2.410156 19.679688 -1.398438 18.109375 -0.671875 C 16.546875 0.0546875 14.8125 0.421875 12.90625 0.421875 Z M 12.203125 -18.390625 C 10.984375 -18.390625 9.992188 -17.976562 9.234375 -17.15625 C 8.484375 -16.34375 8.003906 -15.171875 7.796875 -13.640625 L 16.3125 -13.640625 L 16.3125 -14.125 C 16.28125 -15.488281 15.910156 -16.539062 15.203125 -17.28125 C 14.503906 -18.019531 13.503906 -18.390625 12.203125 -18.390625 Z M 12.203125 -18.390625 "/></g></g></g><g fill="#ff914d" fill-opacity="1"><g transform="translate(317.246289, 69.294117)"><g><path d="M 7.984375 -22.921875 L 8.171875 -20.28125 C 9.816406 -22.320312 12.015625 -23.34375 14.765625 -23.34375 C 17.191406 -23.34375 19 -22.628906 20.1875 -21.203125 C 21.375 -19.773438 21.984375 -17.644531 22.015625 -14.8125 L 22.015625 0 L 15.890625 0 L 15.890625 -14.65625 C 15.890625 -15.957031 15.601562 -16.898438 15.03125 -17.484375 C 14.46875 -18.078125 13.53125 -18.375 12.21875 -18.375 C 10.5 -18.375 9.207031 -17.640625 8.34375 -16.171875 L 8.34375 0 L 2.21875 0 L 2.21875 -22.921875 Z M 7.984375 -22.921875 "/></g></g></g><g fill="#ff914d" fill-opacity="1"><g transform="translate(341.549774, 69.294117)"><g><path d="M 1.390625 -11.671875 C 1.390625 -13.941406 1.828125 -15.96875 2.703125 -17.75 C 3.585938 -19.53125 4.851562 -20.90625 6.5 -21.875 C 8.144531 -22.851562 10.050781 -23.34375 12.21875 -23.34375 C 15.3125 -23.34375 17.835938 -22.394531 19.796875 -20.5 C 21.753906 -18.613281 22.847656 -16.046875 23.078125 -12.796875 L 23.109375 -11.234375 C 23.109375 -7.710938 22.125 -4.890625 20.15625 -2.765625 C 18.195312 -0.640625 15.566406 0.421875 12.265625 0.421875 C 8.960938 0.421875 6.320312 -0.632812 4.34375 -2.75 C 2.375 -4.875 1.390625 -7.757812 1.390625 -11.40625 Z M 7.515625 -11.234375 C 7.515625 -9.054688 7.925781 -7.390625 8.75 -6.234375 C 9.570312 -5.085938 10.742188 -4.515625 12.265625 -4.515625 C 13.742188 -4.515625 14.898438 -5.082031 15.734375 -6.21875 C 16.566406 -7.351562 16.984375 -9.171875 16.984375 -11.671875 C 16.984375 -13.804688 16.566406 -15.457031 15.734375 -16.625 C 14.898438 -17.800781 13.726562 -18.390625 12.21875 -18.390625 C 10.726562 -18.390625 9.570312 -17.804688 8.75 -16.640625 C 7.925781 -15.472656 7.515625 -13.671875 7.515625 -11.234375 Z M 7.515625 -11.234375 "/></g></g></g><g fill="#ffffff" fill-opacity="1"><g transform="translate(113.675899, 100.006835)"><g><path d="M 13.046875 -5.625 C 13.046875 -6.46875 12.75 -7.109375 12.15625 -7.546875 C 11.570312 -7.992188 10.507812 -8.46875 8.96875 -8.96875 C 7.4375 -9.46875 6.222656 -9.957031 5.328125 -10.4375 C 2.898438 -11.75 1.6875 -13.519531 1.6875 -15.75 C 1.6875 -16.914062 2.007812 -17.953125 2.65625 -18.859375 C 3.3125 -19.765625 4.25 -20.472656 5.46875 -20.984375 C 6.695312 -21.492188 8.070312 -21.75 9.59375 -21.75 C 11.125 -21.75 12.488281 -21.472656 13.6875 -20.921875 C 14.882812 -20.367188 15.816406 -19.582031 16.484375 -18.5625 C 17.148438 -17.550781 17.484375 -16.40625 17.484375 -15.125 L 13.0625 -15.125 C 13.0625 -16.101562 12.75 -16.863281 12.125 -17.40625 C 11.507812 -17.957031 10.640625 -18.234375 9.515625 -18.234375 C 8.441406 -18.234375 7.601562 -18.003906 7 -17.546875 C 6.40625 -17.085938 6.109375 -16.488281 6.109375 -15.75 C 6.109375 -15.050781 6.457031 -14.460938 7.15625 -13.984375 C 7.851562 -13.515625 8.890625 -13.070312 10.265625 -12.65625 C 12.773438 -11.90625 14.601562 -10.96875 15.75 -9.84375 C 16.90625 -8.726562 17.484375 -7.332031 17.484375 -5.65625 C 17.484375 -3.800781 16.78125 -2.34375 15.375 -1.28125 C 13.96875 -0.226562 12.078125 0.296875 9.703125 0.296875 C 8.046875 0.296875 6.539062 -0.00390625 5.1875 -0.609375 C 3.832031 -1.210938 2.796875 -2.039062 2.078125 -3.09375 C 1.367188 -4.144531 1.015625 -5.363281 1.015625 -6.75 L 5.453125 -6.75 C 5.453125 -4.382812 6.867188 -3.203125 9.703125 -3.203125 C 10.753906 -3.203125 11.570312 -3.414062 12.15625 -3.84375 C 12.75 -4.269531 13.046875 -4.863281 13.046875 -5.625 Z M 13.046875 -5.625 "/></g></g></g><g fill="#ffffff" fill-opacity="1"><g transform="translate(132.233545, 100.006835)"><g><path d="M 0.96875 -8.125 C 0.96875 -9.707031 1.269531 -11.113281 1.875 -12.34375 C 2.488281 -13.582031 3.367188 -14.539062 4.515625 -15.21875 C 5.660156 -15.90625 6.988281 -16.25 8.5 -16.25 C 10.65625 -16.25 12.410156 -15.585938 13.765625 -14.265625 C 15.128906 -12.953125 15.890625 -11.164062 16.046875 -8.90625 L 16.078125 -7.8125 C 16.078125 -5.363281 15.394531 -3.398438 14.03125 -1.921875 C 12.664062 -0.441406 10.832031 0.296875 8.53125 0.296875 C 6.226562 0.296875 4.390625 -0.4375 3.015625 -1.90625 C 1.648438 -3.382812 0.96875 -5.394531 0.96875 -7.9375 Z M 5.234375 -7.8125 C 5.234375 -6.300781 5.515625 -5.144531 6.078125 -4.34375 C 6.648438 -3.539062 7.46875 -3.140625 8.53125 -3.140625 C 9.5625 -3.140625 10.367188 -3.535156 10.953125 -4.328125 C 11.535156 -5.117188 11.828125 -6.382812 11.828125 -8.125 C 11.828125 -9.601562 11.535156 -10.75 10.953125 -11.5625 C 10.367188 -12.382812 9.550781 -12.796875 8.5 -12.796875 C 7.457031 -12.796875 6.648438 -12.390625 6.078125 -11.578125 C 5.515625 -10.765625 5.234375 -9.507812 5.234375 -7.8125 Z M 5.234375 -7.8125 "/></g></g></g><g fill="#ffffff" fill-opacity="1"><g transform="translate(149.302453, 100.006835)"><g><path d="M 2.796875 0 L 2.796875 -12.828125 L 0.421875 -12.828125 L 0.421875 -15.953125 L 2.796875 -15.953125 L 2.796875 -17.3125 C 2.796875 -19.09375 3.304688 -20.476562 4.328125 -21.46875 C 5.359375 -22.457031 6.800781 -22.953125 8.65625 -22.953125 C 9.238281 -22.953125 9.957031 -22.851562 10.8125 -22.65625 L 10.78125 -19.359375 C 10.425781 -19.441406 9.992188 -19.484375 9.484375 -19.484375 C 7.878906 -19.484375 7.078125 -18.734375 7.078125 -17.234375 L 7.078125 -15.953125 L 10.25 -15.953125 L 10.25 -12.828125 L 7.078125 -12.828125 L 7.078125 0 Z M 2.796875 0 "/></g></g></g><g fill="#ffffff" fill-opacity="1"><g transform="translate(160.121605, 100.006835)"><g><path d="M 6.734375 -19.875 L 6.734375 -15.953125 L 9.46875 -15.953125 L 9.46875 -12.828125 L 6.734375 -12.828125 L 6.734375 -4.859375 C 6.734375 -4.273438 6.847656 -3.851562 7.078125 -3.59375 C 7.304688 -3.34375 7.738281 -3.21875 8.375 -3.21875 C 8.84375 -3.21875 9.257812 -3.25 9.625 -3.3125 L 9.625 -0.09375 C 8.789062 0.164062 7.929688 0.296875 7.046875 0.296875 C 4.054688 0.296875 2.53125 -1.210938 2.46875 -4.234375 L 2.46875 -12.828125 L 0.140625 -12.828125 L 0.140625 -15.953125 L 2.46875 -15.953125 L 2.46875 -19.875 Z M 6.734375 -19.875 "/></g></g></g><g fill="#ffffff" fill-opacity="1"><g transform="translate(170.321678, 100.006835)"><g><path d="M 15.5 -5.796875 L 17.59375 -15.953125 L 21.71875 -15.953125 L 17.640625 0 L 14.078125 0 L 11.0625 -10.03125 L 8.03125 0 L 4.484375 0 L 0.40625 -15.953125 L 4.53125 -15.953125 L 6.609375 -5.8125 L 9.515625 -15.953125 L 12.609375 -15.953125 Z M 15.5 -5.796875 "/></g></g></g><g fill="#ffffff" fill-opacity="1"><g transform="translate(192.505362, 100.006835)"><g><path d="M 10.875 0 C 10.675781 -0.382812 10.535156 -0.863281 10.453125 -1.4375 C 9.421875 -0.28125 8.078125 0.296875 6.421875 0.296875 C 4.859375 0.296875 3.5625 -0.15625 2.53125 -1.0625 C 1.507812 -1.96875 1 -3.109375 1 -4.484375 C 1 -6.171875 1.625 -7.46875 2.875 -8.375 C 4.132812 -9.28125 5.945312 -9.738281 8.3125 -9.75 L 10.28125 -9.75 L 10.28125 -10.65625 C 10.28125 -11.394531 10.085938 -11.984375 9.703125 -12.421875 C 9.328125 -12.867188 8.734375 -13.09375 7.921875 -13.09375 C 7.203125 -13.09375 6.632812 -12.921875 6.21875 -12.578125 C 5.8125 -12.234375 5.609375 -11.757812 5.609375 -11.15625 L 1.359375 -11.15625 C 1.359375 -12.082031 1.640625 -12.9375 2.203125 -13.71875 C 2.773438 -14.507812 3.582031 -15.128906 4.625 -15.578125 C 5.664062 -16.023438 6.835938 -16.25 8.140625 -16.25 C 10.097656 -16.25 11.65625 -15.753906 12.8125 -14.765625 C 13.96875 -13.773438 14.546875 -12.382812 14.546875 -10.59375 L 14.546875 -3.6875 C 14.554688 -2.175781 14.769531 -1.03125 15.1875 -0.25 L 15.1875 0 Z M 7.359375 -2.96875 C 7.984375 -2.96875 8.5625 -3.101562 9.09375 -3.375 C 9.625 -3.65625 10.019531 -4.035156 10.28125 -4.515625 L 10.28125 -7.25 L 8.6875 -7.25 C 6.550781 -7.25 5.414062 -6.515625 5.28125 -5.046875 L 5.265625 -4.796875 C 5.265625 -4.265625 5.445312 -3.828125 5.8125 -3.484375 C 6.1875 -3.140625 6.703125 -2.96875 7.359375 -2.96875 Z M 7.359375 -2.96875 "/></g></g></g><g fill="#ffffff" fill-opacity="1"><g transform="translate(208.68987, 100.006835)"><g><path d="M 10.59375 -11.953125 C 10.019531 -12.035156 9.507812 -12.078125 9.0625 -12.078125 C 7.445312 -12.078125 6.390625 -11.53125 5.890625 -10.4375 L 5.890625 0 L 1.640625 0 L 1.640625 -15.953125 L 5.65625 -15.953125 L 5.78125 -14.046875 C 6.632812 -15.515625 7.816406 -16.25 9.328125 -16.25 C 9.796875 -16.25 10.238281 -16.179688 10.65625 -16.046875 Z M 10.59375 -11.953125 "/></g></g></g><g fill="#ffffff" fill-opacity="1"><g transform="translate(219.700642, 100.006835)"><g><path d="M 8.984375 0.296875 C 6.640625 0.296875 4.734375 -0.421875 3.265625 -1.859375 C 1.796875 -3.296875 1.0625 -5.207031 1.0625 -7.59375 L 1.0625 -8 C 1.0625 -9.601562 1.367188 -11.035156 1.984375 -12.296875 C 2.609375 -13.554688 3.488281 -14.53125 4.625 -15.21875 C 5.757812 -15.90625 7.050781 -16.25 8.5 -16.25 C 10.6875 -16.25 12.40625 -15.554688 13.65625 -14.171875 C 14.90625 -12.796875 15.53125 -10.847656 15.53125 -8.328125 L 15.53125 -6.59375 L 5.375 -6.59375 C 5.519531 -5.550781 5.9375 -4.710938 6.625 -4.078125 C 7.320312 -3.453125 8.195312 -3.140625 9.25 -3.140625 C 10.894531 -3.140625 12.179688 -3.734375 13.109375 -4.921875 L 15.203125 -2.578125 C 14.554688 -1.671875 13.6875 -0.960938 12.59375 -0.453125 C 11.507812 0.046875 10.304688 0.296875 8.984375 0.296875 Z M 8.484375 -12.796875 C 7.640625 -12.796875 6.953125 -12.507812 6.421875 -11.9375 C 5.898438 -11.363281 5.566406 -10.550781 5.421875 -9.5 L 11.34375 -9.5 L 11.34375 -9.828125 C 11.332031 -10.773438 11.078125 -11.503906 10.578125 -12.015625 C 10.085938 -12.535156 9.390625 -12.796875 8.484375 -12.796875 Z M 8.484375 -12.796875 "/></g></g></g><g fill="#ffffff" fill-opacity="1"><g transform="translate(236.017811, 100.006835)"><g/></g></g><g fill="#ffffff" fill-opacity="1"><g transform="translate(243.535205, 100.006835)"><g><path d="M 14.828125 -9.296875 L 6.34375 -9.296875 L 6.34375 -3.546875 L 16.296875 -3.546875 L 16.296875 0 L 1.921875 0 L 1.921875 -21.46875 L 16.265625 -21.46875 L 16.265625 -17.875 L 6.34375 -17.875 L 6.34375 -12.765625 L 14.828125 -12.765625 Z M 14.828125 -9.296875 "/></g></g></g><g fill="#ffffff" fill-opacity="1"><g transform="translate(260.515673, 100.006835)"><g><path d="M 5.5625 -15.953125 L 5.6875 -14.109375 C 6.832031 -15.535156 8.363281 -16.25 10.28125 -16.25 C 11.96875 -16.25 13.222656 -15.75 14.046875 -14.75 C 14.867188 -13.757812 15.289062 -12.273438 15.3125 -10.296875 L 15.3125 0 L 11.0625 0 L 11.0625 -10.203125 C 11.0625 -11.109375 10.863281 -11.765625 10.46875 -12.171875 C 10.070312 -12.578125 9.414062 -12.78125 8.5 -12.78125 C 7.300781 -12.78125 6.40625 -12.269531 5.8125 -11.25 L 5.8125 0 L 1.546875 0 L 1.546875 -15.953125 Z M 5.5625 -15.953125 "/></g></g></g><g fill="#ffffff" fill-opacity="1"><g transform="translate(277.422441, 100.006835)"><g><path d="M 1.015625 -8.09375 C 1.015625 -10.539062 1.597656 -12.507812 2.765625 -14 C 3.929688 -15.5 5.5 -16.25 7.46875 -16.25 C 9.21875 -16.25 10.582031 -15.644531 11.5625 -14.4375 L 11.734375 -15.953125 L 15.59375 -15.953125 L 15.59375 -0.53125 C 15.59375 0.863281 15.273438 2.078125 14.640625 3.109375 C 14.003906 4.140625 13.113281 4.925781 11.96875 5.46875 C 10.820312 6.007812 9.476562 6.28125 7.9375 6.28125 C 6.757812 6.28125 5.613281 6.046875 4.5 5.578125 C 3.394531 5.109375 2.554688 4.507812 1.984375 3.78125 L 3.875 1.171875 C 4.9375 2.367188 6.222656 2.96875 7.734375 2.96875 C 8.867188 2.96875 9.75 2.664062 10.375 2.0625 C 11.007812 1.457031 11.328125 0.597656 11.328125 -0.515625 L 11.328125 -1.375 C 10.335938 -0.257812 9.039062 0.296875 7.4375 0.296875 C 5.519531 0.296875 3.96875 -0.453125 2.78125 -1.953125 C 1.601562 -3.453125 1.015625 -5.441406 1.015625 -7.921875 Z M 5.28125 -7.78125 C 5.28125 -6.332031 5.566406 -5.195312 6.140625 -4.375 C 6.722656 -3.5625 7.519531 -3.15625 8.53125 -3.15625 C 9.832031 -3.15625 10.765625 -3.640625 11.328125 -4.609375 L 11.328125 -11.328125 C 10.753906 -12.296875 9.832031 -12.78125 8.5625 -12.78125 C 7.539062 -12.78125 6.738281 -12.363281 6.15625 -11.53125 C 5.570312 -10.695312 5.28125 -9.445312 5.28125 -7.78125 Z M 5.28125 -7.78125 "/></g></g></g><g fill="#ffffff" fill-opacity="1"><g transform="translate(294.653488, 100.006835)"><g><path d="M 6.125 0 L 1.859375 0 L 1.859375 -15.953125 L 6.125 -15.953125 Z M 1.609375 -20.078125 C 1.609375 -20.710938 1.820312 -21.234375 2.25 -21.640625 C 2.675781 -22.054688 3.257812 -22.265625 4 -22.265625 C 4.71875 -22.265625 5.289062 -22.054688 5.71875 -21.640625 C 6.15625 -21.234375 6.375 -20.710938 6.375 -20.078125 C 6.375 -19.429688 6.15625 -18.898438 5.71875 -18.484375 C 5.289062 -18.066406 4.71875 -17.859375 4 -17.859375 C 3.28125 -17.859375 2.703125 -18.066406 2.265625 -18.484375 C 1.828125 -18.898438 1.609375 -19.429688 1.609375 -20.078125 Z M 1.609375 -20.078125 "/></g></g></g><g fill="#ffffff" fill-opacity="1"><g transform="translate(302.657302, 100.006835)"><g><path d="M 5.5625 -15.953125 L 5.6875 -14.109375 C 6.832031 -15.535156 8.363281 -16.25 10.28125 -16.25 C 11.96875 -16.25 13.222656 -15.75 14.046875 -14.75 C 14.867188 -13.757812 15.289062 -12.273438 15.3125 -10.296875 L 15.3125 0 L 11.0625 0 L 11.0625 -10.203125 C 11.0625 -11.109375 10.863281 -11.765625 10.46875 -12.171875 C 10.070312 -12.578125 9.414062 -12.78125 8.5 -12.78125 C 7.300781 -12.78125 6.40625 -12.269531 5.8125 -11.25 L 5.8125 0 L 1.546875 0 L 1.546875 -15.953125 Z M 5.5625 -15.953125 "/></g></g></g><g fill="#ffffff" fill-opacity="1"><g transform="translate(319.56407, 100.006835)"><g><path d="M 8.984375 0.296875 C 6.640625 0.296875 4.734375 -0.421875 3.265625 -1.859375 C 1.796875 -3.296875 1.0625 -5.207031 1.0625 -7.59375 L 1.0625 -8 C 1.0625 -9.601562 1.367188 -11.035156 1.984375 -12.296875 C 2.609375 -13.554688 3.488281 -14.53125 4.625 -15.21875 C 5.757812 -15.90625 7.050781 -16.25 8.5 -16.25 C 10.6875 -16.25 12.40625 -15.554688 13.65625 -14.171875 C 14.90625 -12.796875 15.53125 -10.847656 15.53125 -8.328125 L 15.53125 -6.59375 L 5.375 -6.59375 C 5.519531 -5.550781 5.9375 -4.710938 6.625 -4.078125 C 7.320312 -3.453125 8.195312 -3.140625 9.25 -3.140625 C 10.894531 -3.140625 12.179688 -3.734375 13.109375 -4.921875 L 15.203125 -2.578125 C 14.554688 -1.671875 13.6875 -0.960938 12.59375 -0.453125 C 11.507812 0.046875 10.304688 0.296875 8.984375 0.296875 Z M 8.484375 -12.796875 C 7.640625 -12.796875 6.953125 -12.507812 6.421875 -11.9375 C 5.898438 -11.363281 5.566406 -10.550781 5.421875 -9.5 L 11.34375 -9.5 L 11.34375 -9.828125 C 11.332031 -10.773438 11.078125 -11.503906 10.578125 -12.015625 C 10.085938 -12.535156 9.390625 -12.796875 8.484375 -12.796875 Z M 8.484375 -12.796875 "/></g></g></g><g fill="#ffffff" fill-opacity="1"><g transform="translate(335.881238, 100.006835)"><g><path d="M 8.984375 0.296875 C 6.640625 0.296875 4.734375 -0.421875 3.265625 -1.859375 C 1.796875 -3.296875 1.0625 -5.207031 1.0625 -7.59375 L 1.0625 -8 C 1.0625 -9.601562 1.367188 -11.035156 1.984375 -12.296875 C 2.609375 -13.554688 3.488281 -14.53125 4.625 -15.21875 C 5.757812 -15.90625 7.050781 -16.25 8.5 -16.25 C 10.6875 -16.25 12.40625 -15.554688 13.65625 -14.171875 C 14.90625 -12.796875 15.53125 -10.847656 15.53125 -8.328125 L 15.53125 -6.59375 L 5.375 -6.59375 C 5.519531 -5.550781 5.9375 -4.710938 6.625 -4.078125 C 7.320312 -3.453125 8.195312 -3.140625 9.25 -3.140625 C 10.894531 -3.140625 12.179688 -3.734375 13.109375 -4.921875 L 15.203125 -2.578125 C 14.554688 -1.671875 13.6875 -0.960938 12.59375 -0.453125 C 11.507812 0.046875 10.304688 0.296875 8.984375 0.296875 Z M 8.484375 -12.796875 C 7.640625 -12.796875 6.953125 -12.507812 6.421875 -11.9375 C 5.898438 -11.363281 5.566406 -10.550781 5.421875 -9.5 L 11.34375 -9.5 L 11.34375 -9.828125 C 11.332031 -10.773438 11.078125 -11.503906 10.578125 -12.015625 C 10.085938 -12.535156 9.390625 -12.796875 8.484375 -12.796875 Z M 8.484375 -12.796875 "/></g></g></g><g fill="#ffffff" fill-opacity="1"><g transform="translate(352.198407, 100.006835)"><g><path d="M 10.59375 -11.953125 C 10.019531 -12.035156 9.507812 -12.078125 9.0625 -12.078125 C 7.445312 -12.078125 6.390625 -11.53125 5.890625 -10.4375 L 5.890625 0 L 1.640625 0 L 1.640625 -15.953125 L 5.65625 -15.953125 L 5.78125 -14.046875 C 6.632812 -15.515625 7.816406 -16.25 9.328125 -16.25 C 9.796875 -16.25 10.238281 -16.179688 10.65625 -16.046875 Z M 10.59375 -11.953125 "/></g></g></g><g fill="#ff914d" fill-opacity="1"><g transform="translate(0.439564, 89.453273)"><g><path d="M 17.078125 10.5 C 10.085938 8.53125 6.59375 4.007812 6.59375 -3.0625 L 6.59375 -8.859375 C 6.59375 -12.960938 4.863281 -15.015625 1.40625 -15.015625 L 1.40625 -21.046875 C 4.78125 -21.046875 6.507812 -22.976562 6.59375 -26.84375 L 6.59375 -33.03125 C 6.59375 -36.625 7.460938 -39.523438 9.203125 -41.734375 C 10.953125 -43.953125 13.578125 -45.5625 17.078125 -46.5625 L 18.71875 -41.859375 C 17.238281 -41.316406 16.117188 -40.367188 15.359375 -39.015625 C 14.597656 -37.671875 14.203125 -35.800781 14.171875 -33.40625 L 14.171875 -27.28125 C 14.171875 -22.894531 12.429688 -19.816406 8.953125 -18.046875 C 12.429688 -16.253906 14.171875 -13.15625 14.171875 -8.75 L 14.171875 -2.5625 C 14.265625 1.976562 15.78125 4.753906 18.71875 5.765625 Z M 17.078125 10.5 "/></g></g></g><g fill="#ff914d" fill-opacity="1"><g transform="translate(93.923947, 89.041437)"><g><path d="M 0.984375 5.765625 C 3.941406 4.722656 5.457031 1.90625 5.53125 -2.6875 L 5.53125 -8.859375 C 5.53125 -13.253906 7.3125 -16.304688 10.875 -18.015625 C 7.3125 -19.722656 5.53125 -22.820312 5.53125 -27.3125 L 5.53125 -33.40625 C 5.457031 -37.925781 3.941406 -40.738281 0.984375 -41.84375 L 2.625 -46.546875 C 6.101562 -45.578125 8.710938 -43.988281 10.453125 -41.78125 C 12.203125 -39.570312 13.085938 -36.679688 13.109375 -33.109375 L 13.109375 -26.84375 C 13.191406 -22.976562 14.921875 -21.046875 18.296875 -21.046875 L 18.296875 -15.015625 C 14.835938 -15.015625 13.109375 -12.984375 13.109375 -8.921875 L 13.109375 -2.59375 C 12.953125 4.207031 9.457031 8.566406 2.625 10.484375 Z M 0.984375 5.765625 "/></g></g></g><g fill="#ffffff" fill-opacity="1"><g transform="translate(20.109981, 88.874997)"><g><path d="M 3.03125 0 L 3.03125 -33.984375 L 14.9375 -33.984375 C 19.0625 -33.984375 22.1875 -33.191406 24.3125 -31.609375 C 26.445312 -30.035156 27.515625 -27.722656 27.515625 -24.671875 C 27.515625 -23.003906 27.085938 -21.535156 26.234375 -20.265625 C 25.378906 -19.003906 24.1875 -18.078125 22.65625 -17.484375 C 24.40625 -17.046875 25.78125 -16.164062 26.78125 -14.84375 C 27.78125 -13.519531 28.28125 -11.898438 28.28125 -9.984375 C 28.28125 -6.722656 27.238281 -4.25 25.15625 -2.5625 C 23.070312 -0.882812 20.101562 -0.03125 16.25 0 Z M 10.03125 -14.796875 L 10.03125 -5.625 L 16.03125 -5.625 C 17.675781 -5.625 18.960938 -6.015625 19.890625 -6.796875 C 20.816406 -7.585938 21.28125 -8.675781 21.28125 -10.0625 C 21.28125 -13.164062 19.671875 -14.742188 16.453125 -14.796875 Z M 10.03125 -19.75 L 15.21875 -19.75 C 18.75 -19.8125 20.515625 -21.21875 20.515625 -23.96875 C 20.515625 -25.507812 20.066406 -26.617188 19.171875 -27.296875 C 18.273438 -27.972656 16.863281 -28.3125 14.9375 -28.3125 L 10.03125 -28.3125 Z M 10.03125 -19.75 "/></g></g></g><g fill="#ffffff" fill-opacity="1"><g transform="translate(50.608175, 88.874997)"><g><path d="M 12.1875 -33.984375 L 20.90625 -9.328125 L 29.59375 -33.984375 L 38.78125 -33.984375 L 38.78125 0 L 31.765625 0 L 31.765625 -9.28125 L 32.46875 -25.328125 L 23.296875 0 L 18.484375 0 L 9.328125 -25.296875 L 10.03125 -9.28125 L 10.03125 0 L 3.03125 0 L 3.03125 -33.984375 Z M 12.1875 -33.984375 "/></g></g></g></svg>